<?xml version="1.0" standalone="no"?>
<!DOCTYPE svg PUBLIC "-//W3C//DTD SVG 20010904//EN"
 "http://www.w3.org/TR/2001/REC-SVG-20010904/DTD/svg10.dtd">
<svg version="1.0" xmlns="http://www.w3.org/2000/svg"
 width="400.000000pt" height="400.000000pt" viewBox="0 0 400.000000 400.000000"
 preserveAspectRatio="xMidYMid meet">

<g transform="translate(0.000000,400.000000) scale(0.100000,-0.100000)"
fill="#000000" stroke="none">
<path d="M1878 3275 c-158 -30 -385 -116 -523 -197 -332 -196 -561 -466 -665
-783 -29 -87 -34 -117 -37 -230 -5 -145 -2 -159 79 -380 76 -205 149 -329 332
-558 128 -161 256 -255 446 -326 192 -72 403 -106 621 -99 126 4 153 8 219 32
41 15 131 42 200 61 207 55 220 63 313 198 232 333 335 597 383 977 34 276 16
624 -40 746 -33 73 -102 139 -238 228 -221 145 -447 250 -673 312 -116 32
-304 40 -417 19z"/>
</g>
</svg>
